# xmcd CD database file
#
# Track frame offsets:
#	150
#	12215
#	20386
#	31880
#	40738
#	53604
#	63870
#	78470
#	90432
#	105489
#	116228
#	122573
#	129356
#	140195
#	148168
#	156210
#	159851
#	164183
#	171721
#	184347
#	194214
#	204503
#	212641
#	215985
#	222921
#	231348
#	241422
#	249201
#	255021
#	263000
#	270719
#	275419
#	281726
#	292301
#	300737
#	305129
#	317844
#	325574
#
# Disc length: 4450 seconds
#
# Revision: 2
# Processed by: cddbd v1.4PL0 Copyright (c) Steve Scherf et al.
# Submitted via: CDex 1.40Release
#
DISCID=44116026
DTITLE=Maddox Brothers and Rose - Live - On The Radio 1953
DYEAR=1900
DGENRE=
TTITLE0=Kaw-Liga (Live)
TTITLE1=Peter Cottontail (Live)
TTITLE2=New Step It Up and Go (Live)
TTITLE3=Honky Tonkin' (Live)
TTITLE4=I'm An Old, Old Man (Live)
TTITLE5=Un-Huh, Honey (Live)
TTITLE6=Pretty Little Dedon (Live)
TTITLE7=Let's Walk That-A-Way, Not This-A-Way (Live)
TTITLE8=Take My Hand Precious Lord (Live)
TTITLE9=On Mexico's Beautiful Shores (Live)
TTITLE10=Mr. Know It All (Young girl of 22) (Live)
TTITLE11=There's A Rainbow In Every Teardrop (Live)
TTITLE12=You Gotta Have A License (Live)
TTITLE13=Waterbaby Blues (Live)
TTITLE14=John Henry (Live)
TTITLE15=Mr. Know It All (Daughter is 16 years old) (Live)
TTITLE16=When God Dips His Love In My Heart (Live)
TTITLE17=My Bucket's Got A Hole In It (Live)
TTITLE18=Beautiful Louisiana (Live)
TTITLE19=Rub-A-Dub-Dub (Live)
TTITLE20=Wake Up, Irene (Live)
TTITLE21=It's Been So Long (Live)
TTITLE22=Mr. Know It All (Fox Tail Jacket) (Live) 
TTITLE23=I Gotta Have Some Lovin' (Live)
TTITLE24=Shot Gun Boogie (Live)
TTITLE25=Why Do You Weep, Dear Willow (Live)
TTITLE26=Mr. Know It All (Affectionate Neighbors) (Live)
TTITLE27=Red Ball To Natchez, Mississippi (Live)
TTITLE28=Mule Skinner Blues (Live)
TTITLE29=Silent Night, Holy Night (Live)
TTITLE30=Mr. Know It All (Been away from home) (Live)
TTITLE31=Girl I Love Don't Pay Me No Mind (Live)
TTITLE32=Sweet Mama, Tree Top Tall (Live)
TTITLE33=When The Angels Carry Me Home (Live)
TTITLE34=Mr. Know It All (I Need A wife) (Live)
TTITLE35=Dim Lights, Thick Smoke, And Loud, Loud Music (Live)
TTITLE36=Wait A Little Longer (Live)
TTITLE37=Is He Satisfied (Live)
EXTD=
EXTT0=
EXTT1=
EXTT2=
EXTT3=
EXTT4=
EXTT5=
EXTT6=
EXTT7=
EXTT8=
EXTT9=
EXTT10=
EXTT11=
EXTT12=
EXTT13=
EXTT14=
EXTT15=
EXTT16=
EXTT17=
EXTT18=
EXTT19=
EXTT20=
EXTT21=
EXTT22=
EXTT23=
EXTT24=
EXTT25=
EXTT26=
EXTT27=
EXTT28=
EXTT29=
EXTT30=
EXTT31=
EXTT32=
EXTT33=
EXTT34=
EXTT35=
EXTT36=
EXTT37=
PLAYORDER=
